<?xml version="1.0" encoding="UTF-8" standalone="no"?> <svg xmlns="http://www.w3.org/2000/svg" viewBox="0 0 64 48"><defs><style>.cls-1{fill:#35353d;}</style></defs><title>Asset 37</title><g id="Layer_2" data-name="Layer 2"><g id="Layer_1-2" data-name="Layer 1"><path class="cls-1" d="M56,0H8A8,8,0,0,0,0,8V40a8,8,0,0,0,8,8H56a8,8,0,0,0,8-8V8A8,8,0,0,0,56,0ZM8,5.33H56A2.68,2.68,0,0,1,58.67,8v2.67H5.33V8A2.68,2.68,0,0,1,8,5.33ZM56,42.67H8A2.68,2.68,0,0,1,5.33,40V16H58.67V40A2.68,2.68,0,0,1,56,42.67Z"/><rect class="cls-1" x="40" y="24" width="13.33" height="13.33"/></g></g></svg>